<svg width="1650" height="707" viewBox="0 0 1650 707" fill="none" xmlns="http://www.w3.org/2000/svg">
<g clip-path="url(#clip0_44_759)">
<mask id="mask0_44_759" style="mask-type:luminance" maskUnits="userSpaceOnUse" x="0" y="0" width="1650" height="707">
<path d="M1650 0H0V707H1650V0Z" fill="white"/>
</mask>
<g mask="url(#mask0_44_759)">
<path d="M1650 0H0V707H1650V0Z" fill="black"/>
<path opacity="0.35" d="M1865 -25.5625H-215V733.235H1865V-25.5625Z" fill="url(#paint0_linear_44_759)"/>
<path opacity="0.1" d="M1816 -16.1445H-166V755.434H1816V-16.1445Z" fill="url(#paint1_linear_44_759)"/>
</g>
<g opacity="0.47">
<g filter="url(#filter0_f_44_759)">
<path opacity="0.42" d="M1549.12 438.721L2156.39 579.291L2100.72 626.49L1423.12 443.276L1549.12 438.721Z" fill="black"/>
<path opacity="0.42" d="M710.044 448.562L1417.89 428.266L1461.75 431.412L694.153 458.32L710.044 448.562Z" fill="black"/>
<path opacity="0.42" d="M2060.67 451.347L1578.26 436.403L1645.45 432.85L2128.29 445.943L2060.67 451.347Z" fill="black"/>
<path opacity="0.42" d="M1541.17 437.495L752.269 462.643L708.41 459.497L1465.59 432.561L1541.17 437.495Z" fill="black"/>
<path opacity="0.42" d="M1549.12 438.721L2156.39 579.291L2100.72 626.49L1423.12 443.276L1549.12 438.721Z" fill="#54D3D8"/>
<path opacity="0.42" d="M710.044 448.562L1417.89 428.266L1461.75 431.412L694.153 458.32L710.044 448.562Z" fill="#54D3D8"/>
<path opacity="0.42" d="M2060.67 451.347L1578.26 436.403L1645.45 432.85L2128.29 445.943L2060.67 451.347Z" fill="#54D3D8"/>
<path opacity="0.42" d="M1541.17 437.495L752.269 462.643L708.41 459.497L1465.59 432.561L1541.17 437.495Z" fill="#54D3D8"/>
<path opacity="0.42" d="M1549.12 438.721L2156.39 579.291L2100.72 626.49L1423.12 443.276L1549.12 438.721Z" fill="url(#paint2_linear_44_759)"/>
<path opacity="0.42" d="M710.044 448.562L1417.89 428.266L1461.75 431.412L694.153 458.32L710.044 448.562Z" fill="url(#paint3_linear_44_759)"/>
<path opacity="0.42" d="M2060.67 451.347L1578.26 436.403L1645.45 432.85L2128.29 445.943L2060.67 451.347Z" fill="url(#paint4_linear_44_759)"/>
<path opacity="0.42" d="M1541.17 437.495L752.269 462.643L708.41 459.497L1465.59 432.561L1541.17 437.495Z" fill="url(#paint5_linear_44_759)"/>
</g>
<g opacity="0.64" filter="url(#filter1_f_44_759)">
<path d="M1097.93 483.34L697.16 472.911L752.903 468.029L1154 476.373L1097.93 483.34Z" fill="#54D3D8"/>
</g>
<g filter="url(#filter2_f_44_759)">
<path opacity="0.42" d="M-79.41 497.919L555.419 465.757L594.816 468.714L-93.5276 509.098L-79.41 497.919Z" fill="#54D3D8"/>
<path opacity="0.42" d="M666.164 474.51L-41.3201 513.198L-80.7183 510.241L598.282 469.962L666.164 474.51Z" fill="#54D3D8"/>
</g>
<g filter="url(#filter3_f_44_759)">
<path d="M-93.573 370.091L461.509 429.62L493.533 430.184L-111.037 362.153L-93.573 370.091Z" fill="url(#paint6_linear_44_759)"/>
</g>
<g filter="url(#filter4_f_44_759)">
<path d="M-157.18 349.257L600.151 432.302L642.899 434.068L-183.003 340.255L-157.18 349.257Z" fill="url(#paint7_linear_44_759)"/>
</g>
<g opacity="0.58" filter="url(#filter5_f_44_759)">
<path d="M2281.85 395.763L651.698 434.055L873.406 416.693L2382.39 379.568L2281.85 395.763Z" fill="url(#paint8_linear_44_759)"/>
</g>
<g opacity="0.35" filter="url(#filter6_f_44_759)">
<path d="M2586.26 351.078L938.505 402.6L1159.45 383.667L2684.29 334.328L2586.26 351.078Z" fill="url(#paint9_linear_44_759)"/>
</g>
<g opacity="0.58" filter="url(#filter7_f_44_759)">
<path d="M1476.1 577.807L1163.41 478.003L1206.98 488.027L1496.58 579.922L1476.1 577.807Z" fill="url(#paint10_linear_44_759)"/>
</g>
<g opacity="0.35" filter="url(#filter8_f_44_759)">
<path d="M1537.73 585.484L1220.55 488.344L1264.12 497.858L1557.77 587.266L1537.73 585.484Z" fill="url(#paint11_linear_44_759)"/>
</g>
<g filter="url(#filter9_f_44_759)">
<path opacity="0.42" d="M551.102 614.614L-500.105 785.863L-403.732 843.362L769.221 620.163L551.102 614.614Z" fill="url(#paint12_linear_44_759)"/>
<path opacity="0.42" d="M2003.57 626.603L778.265 601.878L702.346 605.71L2031.08 638.49L2003.57 626.603Z" fill="url(#paint13_linear_44_759)"/>
<path opacity="0.42" d="M-334.412 629.995L500.657 611.79L384.349 607.461L-451.453 623.412L-334.412 629.995Z" fill="url(#paint14_linear_44_759)"/>
<path opacity="0.42" d="M564.869 613.12L1930.48 643.757L2006.4 639.925L695.693 607.11L564.869 613.12Z" fill="url(#paint15_linear_44_759)"/>
</g>
</g>
</g>
<defs>
<filter id="filter0_f_44_759" x="690.153" y="424.266" width="1470.24" height="206.224" filterUnits="userSpaceOnUse" color-interpolation-filters="sRGB">
<feFlood flood-opacity="0" result="BackgroundImageFix"/>
<feBlend mode="normal" in="SourceGraphic" in2="BackgroundImageFix" result="shape"/>
<feGaussianBlur stdDeviation="2" result="effect1_foregroundBlur_44_759"/>
</filter>
<filter id="filter1_f_44_759" x="695.659" y="466.529" width="459.841" height="18.3105" filterUnits="userSpaceOnUse" color-interpolation-filters="sRGB">
<feFlood flood-opacity="0" result="BackgroundImageFix"/>
<feBlend mode="normal" in="SourceGraphic" in2="BackgroundImageFix" result="shape"/>
<feGaussianBlur stdDeviation="0.75" result="effect1_foregroundBlur_44_759"/>
</filter>
<filter id="filter2_f_44_759" x="-96.7273" y="462.557" width="766.091" height="53.8414" filterUnits="userSpaceOnUse" color-interpolation-filters="sRGB">
<feFlood flood-opacity="0" result="BackgroundImageFix"/>
<feBlend mode="normal" in="SourceGraphic" in2="BackgroundImageFix" result="shape"/>
<feGaussianBlur stdDeviation="1.6" result="effect1_foregroundBlur_44_759"/>
</filter>
<filter id="filter3_f_44_759" x="-112.037" y="361.153" width="606.57" height="70.0308" filterUnits="userSpaceOnUse" color-interpolation-filters="sRGB">
<feFlood flood-opacity="0" result="BackgroundImageFix"/>
<feBlend mode="normal" in="SourceGraphic" in2="BackgroundImageFix" result="shape"/>
<feGaussianBlur stdDeviation="0.5" result="effect1_foregroundBlur_44_759"/>
</filter>
<filter id="filter4_f_44_759" x="-184.403" y="338.855" width="828.701" height="96.613" filterUnits="userSpaceOnUse" color-interpolation-filters="sRGB">
<feFlood flood-opacity="0" result="BackgroundImageFix"/>
<feBlend mode="normal" in="SourceGraphic" in2="BackgroundImageFix" result="shape"/>
<feGaussianBlur stdDeviation="0.7" result="effect1_foregroundBlur_44_759"/>
</filter>
<filter id="filter5_f_44_759" x="650.398" y="378.267" width="1733.29" height="57.0883" filterUnits="userSpaceOnUse" color-interpolation-filters="sRGB">
<feFlood flood-opacity="0" result="BackgroundImageFix"/>
<feBlend mode="normal" in="SourceGraphic" in2="BackgroundImageFix" result="shape"/>
<feGaussianBlur stdDeviation="0.65" result="effect1_foregroundBlur_44_759"/>
</filter>
<filter id="filter6_f_44_759" x="937.605" y="333.428" width="1747.59" height="70.0725" filterUnits="userSpaceOnUse" color-interpolation-filters="sRGB">
<feFlood flood-opacity="0" result="BackgroundImageFix"/>
<feBlend mode="normal" in="SourceGraphic" in2="BackgroundImageFix" result="shape"/>
<feGaussianBlur stdDeviation="0.45" result="effect1_foregroundBlur_44_759"/>
</filter>
<filter id="filter7_f_44_759" x="1162.11" y="476.703" width="335.772" height="104.519" filterUnits="userSpaceOnUse" color-interpolation-filters="sRGB">
<feFlood flood-opacity="0" result="BackgroundImageFix"/>
<feBlend mode="normal" in="SourceGraphic" in2="BackgroundImageFix" result="shape"/>
<feGaussianBlur stdDeviation="0.65" result="effect1_foregroundBlur_44_759"/>
</filter>
<filter id="filter8_f_44_759" x="1219.65" y="487.444" width="339.024" height="100.722" filterUnits="userSpaceOnUse" color-interpolation-filters="sRGB">
<feFlood flood-opacity="0" result="BackgroundImageFix"/>
<feBlend mode="normal" in="SourceGraphic" in2="BackgroundImageFix" result="shape"/>
<feGaussianBlur stdDeviation="0.45" result="effect1_foregroundBlur_44_759"/>
</filter>
<filter id="filter9_f_44_759" x="-504.104" y="597.878" width="2539.18" height="249.484" filterUnits="userSpaceOnUse" color-interpolation-filters="sRGB">
<feFlood flood-opacity="0" result="BackgroundImageFix"/>
<feBlend mode="normal" in="SourceGraphic" in2="BackgroundImageFix" result="shape"/>
<feGaussianBlur stdDeviation="2" result="effect1_foregroundBlur_44_759"/>
</filter>
<linearGradient id="paint0_linear_44_759" x1="825" y1="-25.5625" x2="825" y2="733.235" gradientUnits="userSpaceOnUse">
<stop stop-color="#54D3D8"/>
<stop offset="1"/>
</linearGradient>
<linearGradient id="paint1_linear_44_759" x1="825" y1="-16.1445" x2="825" y2="707.209" gradientUnits="userSpaceOnUse">
<stop/>
<stop offset="1" stop-color="#54D3D8"/>
</linearGradient>
<linearGradient id="paint2_linear_44_759" x1="2168.21" y1="614.449" x2="1817.05" y2="561.755" gradientUnits="userSpaceOnUse">
<stop stop-color="#54D3D8"/>
<stop offset="1" stop-color="#266062"/>
</linearGradient>
<linearGradient id="paint3_linear_44_759" x1="1459.37" y1="423.137" x2="1230.37" y2="602.893" gradientUnits="userSpaceOnUse">
<stop stop-color="#54D3D8"/>
<stop offset="1" stop-color="#266062"/>
</linearGradient>
<linearGradient id="paint4_linear_44_759" x1="1578.12" y1="442.108" x2="1786.92" y2="343.487" gradientUnits="userSpaceOnUse">
<stop stop-color="#54D3D8"/>
<stop offset="1" stop-color="#266062"/>
</linearGradient>
<linearGradient id="paint5_linear_44_759" x1="711.105" y1="468.501" x2="955.838" y2="274.825" gradientUnits="userSpaceOnUse">
<stop stop-color="#54D3D8"/>
<stop offset="1" stop-color="#266062"/>
</linearGradient>
<linearGradient id="paint6_linear_44_759" x1="465.759" y1="473.437" x2="6.75995" y2="178.703" gradientUnits="userSpaceOnUse">
<stop stop-color="#266062"/>
<stop offset="1" stop-color="#4EC3C8"/>
</linearGradient>
<linearGradient id="paint7_linear_44_759" x1="620.219" y1="478.61" x2="-73.5727" y2="125.342" gradientUnits="userSpaceOnUse">
<stop offset="0.191502" stop-color="#2C6F72"/>
<stop offset="1" stop-color="#54D3D8"/>
</linearGradient>
<linearGradient id="paint8_linear_44_759" x1="2348.46" y1="384.329" x2="916.559" y2="1025.54" gradientUnits="userSpaceOnUse">
<stop stop-color="#54D3D8"/>
<stop offset="0.759615" stop-color="#2C6F72"/>
</linearGradient>
<linearGradient id="paint9_linear_44_759" x1="2311.77" y1="352.069" x2="1383.68" y2="1016.16" gradientUnits="userSpaceOnUse">
<stop stop-color="#54D3D8"/>
<stop offset="0.788462" stop-color="#2C6F72"/>
</linearGradient>
<linearGradient id="paint10_linear_44_759" x1="1489.73" y1="579.003" x2="1163.05" y2="577.844" gradientUnits="userSpaceOnUse">
<stop stop-color="#54D3D8"/>
<stop offset="0.759615" stop-color="#2C6F72"/>
</linearGradient>
<linearGradient id="paint11_linear_44_759" x1="1485.54" y1="567.084" x2="1238.39" y2="603.113" gradientUnits="userSpaceOnUse">
<stop stop-color="#54D3D8"/>
<stop offset="0.788462" stop-color="#2C6F72"/>
</linearGradient>
<linearGradient id="paint12_linear_44_759" x1="744.975" y1="743.102" x2="-445.372" y2="508.343" gradientUnits="userSpaceOnUse">
<stop stop-color="#54D3D8"/>
<stop offset="1" stop-color="#2C6F72"/>
</linearGradient>
<linearGradient id="paint13_linear_44_759" x1="1894.52" y1="716.818" x2="1551.45" y2="118.694" gradientUnits="userSpaceOnUse">
<stop stop-color="#54D3D8"/>
<stop offset="1" stop-color="#2C6F72"/>
</linearGradient>
<linearGradient id="paint14_linear_44_759" x1="-374.981" y1="563.356" x2="-17.4261" y2="1018.65" gradientUnits="userSpaceOnUse">
<stop stop-color="#54D3D8"/>
<stop offset="1" stop-color="#2C6F72"/>
</linearGradient>
<linearGradient id="paint15_linear_44_759" x1="723.631" y1="522.06" x2="1092.04" y2="1164.37" gradientUnits="userSpaceOnUse">
<stop stop-color="#54D3D8"/>
<stop offset="1" stop-color="#2C6F72"/>
</linearGradient>
<clipPath id="clip0_44_759">
<rect width="1650" height="707" fill="white"/>
</clipPath>
</defs>
</svg>
