<svg width="1650" height="1051" viewBox="0 0 1650 1051" fill="none" xmlns="http://www.w3.org/2000/svg">
<g clip-path="url(#clip0_44_586)">
<mask id="mask0_44_586" style="mask-type:luminance" maskUnits="userSpaceOnUse" x="0" y="0" width="1650" height="1051">
<path d="M1650 0H0V1051H1650V0Z" fill="white"/>
</mask>
<g mask="url(#mask0_44_586)">
<path d="M1650 0H0V1051H1650V0Z" fill="black"/>
<path opacity="0.35" d="M1865 -38H-215V1090H1865V-38Z" fill="url(#paint0_linear_44_586)"/>
<path opacity="0.33" d="M-459.458 1061.04C154.429 1450.52 872.908 1418.2 1145.31 988.848C1417.71 559.497 1140.89 -104.298 526.999 -493.78C-86.8876 -883.262 -805.367 -850.942 -1077.77 -421.592C-1350.17 7.75853 -1073.34 671.553 -459.458 1061.04Z" fill="url(#paint1_radial_44_586)"/>
<path opacity="0.1" d="M1816 -24H-166V1123H1816V-24Z" fill="url(#paint2_linear_44_586)"/>
<path opacity="0.26" d="M1816 -515H-166V1330H1816V-515Z" fill="url(#paint3_linear_44_586)"/>
</g>
<g opacity="0.47">
<g filter="url(#filter0_f_44_586)">
<path opacity="0.42" d="M1549.12 782.72L2156.39 923.29L2100.72 970.489L1423.12 787.274L1549.12 782.72Z" fill="black"/>
<path opacity="0.42" d="M710.044 792.561L1417.89 772.265L1461.75 775.411L694.153 802.319L710.044 792.561Z" fill="black"/>
<path opacity="0.42" d="M2060.67 795.345L1578.26 780.402L1645.45 776.848L2128.29 789.941L2060.67 795.345Z" fill="black"/>
<path opacity="0.42" d="M1541.17 781.493L752.269 806.642L708.41 803.496L1465.59 776.56L1541.17 781.493Z" fill="black"/>
<path opacity="0.42" d="M1549.12 782.72L2156.39 923.29L2100.72 970.489L1423.12 787.274L1549.12 782.72Z" fill="#54D3D8"/>
<path opacity="0.42" d="M710.044 792.561L1417.89 772.265L1461.75 775.411L694.153 802.319L710.044 792.561Z" fill="#54D3D8"/>
<path opacity="0.42" d="M2060.67 795.345L1578.26 780.402L1645.45 776.848L2128.29 789.941L2060.67 795.345Z" fill="#54D3D8"/>
<path opacity="0.42" d="M1541.17 781.493L752.269 806.642L708.41 803.496L1465.59 776.56L1541.17 781.493Z" fill="#54D3D8"/>
<path opacity="0.42" d="M1549.12 782.72L2156.39 923.29L2100.72 970.489L1423.12 787.274L1549.12 782.72Z" fill="url(#paint4_linear_44_586)"/>
<path opacity="0.42" d="M710.044 792.561L1417.89 772.265L1461.75 775.411L694.153 802.319L710.044 792.561Z" fill="url(#paint5_linear_44_586)"/>
<path opacity="0.42" d="M2060.67 795.345L1578.26 780.402L1645.45 776.848L2128.29 789.941L2060.67 795.345Z" fill="url(#paint6_linear_44_586)"/>
<path opacity="0.42" d="M1541.17 781.493L752.269 806.642L708.41 803.496L1465.59 776.56L1541.17 781.493Z" fill="url(#paint7_linear_44_586)"/>
</g>
<g opacity="0.64" filter="url(#filter1_f_44_586)">
<path d="M1097.93 827.339L697.16 816.91L752.903 812.028L1154 820.372L1097.93 827.339Z" fill="#54D3D8"/>
</g>
<g filter="url(#filter2_f_44_586)">
<path opacity="0.42" d="M-79.411 841.919L555.418 809.757L594.815 812.714L-93.5286 853.098L-79.411 841.919Z" fill="#54D3D8"/>
<path opacity="0.42" d="M666.163 818.51L-41.3211 857.198L-80.7193 854.241L598.281 813.962L666.163 818.51Z" fill="#54D3D8"/>
</g>
<g filter="url(#filter3_f_44_586)">
<path d="M-93.573 714.089L461.509 773.619L493.533 774.182L-111.037 706.151L-93.573 714.089Z" fill="url(#paint8_linear_44_586)"/>
</g>
<g filter="url(#filter4_f_44_586)">
<path d="M-157.18 693.256L600.151 776.301L642.899 778.067L-183.003 684.254L-157.18 693.256Z" fill="url(#paint9_linear_44_586)"/>
</g>
<g opacity="0.58" filter="url(#filter5_f_44_586)">
<path d="M2281.85 739.762L651.697 778.054L873.405 760.692L2382.39 723.567L2281.85 739.762Z" fill="url(#paint10_linear_44_586)"/>
</g>
<g opacity="0.35" filter="url(#filter6_f_44_586)">
<path d="M2586.26 695.077L938.504 746.599L1159.45 727.666L2684.29 678.327L2586.26 695.077Z" fill="url(#paint11_linear_44_586)"/>
</g>
<g opacity="0.58" filter="url(#filter7_f_44_586)">
<path d="M1476.1 921.806L1163.41 822.002L1206.98 832.026L1496.58 923.921L1476.1 921.806Z" fill="url(#paint12_linear_44_586)"/>
</g>
<g opacity="0.35" filter="url(#filter8_f_44_586)">
<path d="M1537.73 929.483L1220.55 832.343L1264.12 841.857L1557.77 931.265L1537.73 929.483Z" fill="url(#paint13_linear_44_586)"/>
</g>
<g filter="url(#filter9_f_44_586)">
<path opacity="0.42" d="M551.102 958.614L-500.105 1129.86L-403.732 1187.36L769.221 964.163L551.102 958.614Z" fill="url(#paint14_linear_44_586)"/>
<path opacity="0.42" d="M2003.57 970.603L778.265 945.878L702.346 949.71L2031.08 982.49L2003.57 970.603Z" fill="url(#paint15_linear_44_586)"/>
<path opacity="0.42" d="M-334.412 973.995L500.657 955.79L384.349 951.461L-451.453 967.412L-334.412 973.995Z" fill="url(#paint16_linear_44_586)"/>
<path opacity="0.42" d="M564.869 957.119L1930.48 987.756L2006.4 983.924L695.693 951.109L564.869 957.119Z" fill="url(#paint17_linear_44_586)"/>
</g>
</g>
</g>
<defs>
<filter id="filter0_f_44_586" x="690.153" y="768.266" width="1470.24" height="206.224" filterUnits="userSpaceOnUse" color-interpolation-filters="sRGB">
<feFlood flood-opacity="0" result="BackgroundImageFix"/>
<feBlend mode="normal" in="SourceGraphic" in2="BackgroundImageFix" result="shape"/>
<feGaussianBlur stdDeviation="2" result="effect1_foregroundBlur_44_586"/>
</filter>
<filter id="filter1_f_44_586" x="695.659" y="810.528" width="459.841" height="18.3105" filterUnits="userSpaceOnUse" color-interpolation-filters="sRGB">
<feFlood flood-opacity="0" result="BackgroundImageFix"/>
<feBlend mode="normal" in="SourceGraphic" in2="BackgroundImageFix" result="shape"/>
<feGaussianBlur stdDeviation="0.75" result="effect1_foregroundBlur_44_586"/>
</filter>
<filter id="filter2_f_44_586" x="-96.7283" y="806.557" width="766.091" height="53.8414" filterUnits="userSpaceOnUse" color-interpolation-filters="sRGB">
<feFlood flood-opacity="0" result="BackgroundImageFix"/>
<feBlend mode="normal" in="SourceGraphic" in2="BackgroundImageFix" result="shape"/>
<feGaussianBlur stdDeviation="1.6" result="effect1_foregroundBlur_44_586"/>
</filter>
<filter id="filter3_f_44_586" x="-112.037" y="705.15" width="606.57" height="70.0312" filterUnits="userSpaceOnUse" color-interpolation-filters="sRGB">
<feFlood flood-opacity="0" result="BackgroundImageFix"/>
<feBlend mode="normal" in="SourceGraphic" in2="BackgroundImageFix" result="shape"/>
<feGaussianBlur stdDeviation="0.5" result="effect1_foregroundBlur_44_586"/>
</filter>
<filter id="filter4_f_44_586" x="-184.403" y="682.854" width="828.701" height="96.6135" filterUnits="userSpaceOnUse" color-interpolation-filters="sRGB">
<feFlood flood-opacity="0" result="BackgroundImageFix"/>
<feBlend mode="normal" in="SourceGraphic" in2="BackgroundImageFix" result="shape"/>
<feGaussianBlur stdDeviation="0.7" result="effect1_foregroundBlur_44_586"/>
</filter>
<filter id="filter5_f_44_586" x="650.397" y="722.266" width="1733.29" height="57.0883" filterUnits="userSpaceOnUse" color-interpolation-filters="sRGB">
<feFlood flood-opacity="0" result="BackgroundImageFix"/>
<feBlend mode="normal" in="SourceGraphic" in2="BackgroundImageFix" result="shape"/>
<feGaussianBlur stdDeviation="0.65" result="effect1_foregroundBlur_44_586"/>
</filter>
<filter id="filter6_f_44_586" x="937.604" y="677.427" width="1747.59" height="70.0715" filterUnits="userSpaceOnUse" color-interpolation-filters="sRGB">
<feFlood flood-opacity="0" result="BackgroundImageFix"/>
<feBlend mode="normal" in="SourceGraphic" in2="BackgroundImageFix" result="shape"/>
<feGaussianBlur stdDeviation="0.45" result="effect1_foregroundBlur_44_586"/>
</filter>
<filter id="filter7_f_44_586" x="1162.11" y="820.702" width="335.772" height="104.519" filterUnits="userSpaceOnUse" color-interpolation-filters="sRGB">
<feFlood flood-opacity="0" result="BackgroundImageFix"/>
<feBlend mode="normal" in="SourceGraphic" in2="BackgroundImageFix" result="shape"/>
<feGaussianBlur stdDeviation="0.65" result="effect1_foregroundBlur_44_586"/>
</filter>
<filter id="filter8_f_44_586" x="1219.65" y="831.443" width="339.024" height="100.722" filterUnits="userSpaceOnUse" color-interpolation-filters="sRGB">
<feFlood flood-opacity="0" result="BackgroundImageFix"/>
<feBlend mode="normal" in="SourceGraphic" in2="BackgroundImageFix" result="shape"/>
<feGaussianBlur stdDeviation="0.45" result="effect1_foregroundBlur_44_586"/>
</filter>
<filter id="filter9_f_44_586" x="-504.104" y="941.878" width="2539.18" height="249.484" filterUnits="userSpaceOnUse" color-interpolation-filters="sRGB">
<feFlood flood-opacity="0" result="BackgroundImageFix"/>
<feBlend mode="normal" in="SourceGraphic" in2="BackgroundImageFix" result="shape"/>
<feGaussianBlur stdDeviation="2" result="effect1_foregroundBlur_44_586"/>
</filter>
<linearGradient id="paint0_linear_44_586" x1="825" y1="-38" x2="825" y2="1090" gradientUnits="userSpaceOnUse">
<stop stop-color="#54D3D8"/>
<stop offset="1"/>
</linearGradient>
<radialGradient id="paint1_radial_44_586" cx="0" cy="0" r="1" gradientUnits="userSpaceOnUse" gradientTransform="translate(33.7706 283.628) rotate(122.393) scale(920.672 1316.38)">
<stop stop-color="#4EC3C8"/>
<stop offset="1" stop-color="#4EC3C8" stop-opacity="0"/>
</radialGradient>
<linearGradient id="paint2_linear_44_586" x1="825" y1="-24" x2="825" y2="1051.31" gradientUnits="userSpaceOnUse">
<stop/>
<stop offset="1" stop-color="#54D3D8"/>
</linearGradient>
<linearGradient id="paint3_linear_44_586" x1="825" y1="-515" x2="825" y2="1214.69" gradientUnits="userSpaceOnUse">
<stop stop-color="#54D3D8"/>
<stop offset="0.572675"/>
</linearGradient>
<linearGradient id="paint4_linear_44_586" x1="2168.21" y1="958.448" x2="1817.05" y2="905.753" gradientUnits="userSpaceOnUse">
<stop stop-color="#54D3D8"/>
<stop offset="1" stop-color="#266062"/>
</linearGradient>
<linearGradient id="paint5_linear_44_586" x1="1459.37" y1="767.136" x2="1230.37" y2="946.892" gradientUnits="userSpaceOnUse">
<stop stop-color="#54D3D8"/>
<stop offset="1" stop-color="#266062"/>
</linearGradient>
<linearGradient id="paint6_linear_44_586" x1="1578.12" y1="786.106" x2="1786.92" y2="687.485" gradientUnits="userSpaceOnUse">
<stop stop-color="#54D3D8"/>
<stop offset="1" stop-color="#266062"/>
</linearGradient>
<linearGradient id="paint7_linear_44_586" x1="711.105" y1="812.499" x2="955.838" y2="618.823" gradientUnits="userSpaceOnUse">
<stop stop-color="#54D3D8"/>
<stop offset="1" stop-color="#266062"/>
</linearGradient>
<linearGradient id="paint8_linear_44_586" x1="465.759" y1="817.435" x2="6.75995" y2="522.701" gradientUnits="userSpaceOnUse">
<stop stop-color="#266062"/>
<stop offset="1" stop-color="#4EC3C8"/>
</linearGradient>
<linearGradient id="paint9_linear_44_586" x1="620.219" y1="822.609" x2="-73.5727" y2="469.341" gradientUnits="userSpaceOnUse">
<stop offset="0.191502" stop-color="#2C6F72"/>
<stop offset="1" stop-color="#54D3D8"/>
</linearGradient>
<linearGradient id="paint10_linear_44_586" x1="2348.46" y1="728.328" x2="916.558" y2="1369.54" gradientUnits="userSpaceOnUse">
<stop stop-color="#54D3D8"/>
<stop offset="0.759615" stop-color="#2C6F72"/>
</linearGradient>
<linearGradient id="paint11_linear_44_586" x1="2311.77" y1="696.068" x2="1383.68" y2="1360.15" gradientUnits="userSpaceOnUse">
<stop stop-color="#54D3D8"/>
<stop offset="0.788462" stop-color="#2C6F72"/>
</linearGradient>
<linearGradient id="paint12_linear_44_586" x1="1489.73" y1="923.002" x2="1163.05" y2="921.843" gradientUnits="userSpaceOnUse">
<stop stop-color="#54D3D8"/>
<stop offset="0.759615" stop-color="#2C6F72"/>
</linearGradient>
<linearGradient id="paint13_linear_44_586" x1="1485.54" y1="911.084" x2="1238.39" y2="947.112" gradientUnits="userSpaceOnUse">
<stop stop-color="#54D3D8"/>
<stop offset="0.788462" stop-color="#2C6F72"/>
</linearGradient>
<linearGradient id="paint14_linear_44_586" x1="744.975" y1="1087.1" x2="-445.372" y2="852.343" gradientUnits="userSpaceOnUse">
<stop stop-color="#54D3D8"/>
<stop offset="1" stop-color="#2C6F72"/>
</linearGradient>
<linearGradient id="paint15_linear_44_586" x1="1894.52" y1="1060.82" x2="1551.45" y2="462.694" gradientUnits="userSpaceOnUse">
<stop stop-color="#54D3D8"/>
<stop offset="1" stop-color="#2C6F72"/>
</linearGradient>
<linearGradient id="paint16_linear_44_586" x1="-374.981" y1="907.356" x2="-17.4261" y2="1362.65" gradientUnits="userSpaceOnUse">
<stop stop-color="#54D3D8"/>
<stop offset="1" stop-color="#2C6F72"/>
</linearGradient>
<linearGradient id="paint17_linear_44_586" x1="723.631" y1="866.059" x2="1092.04" y2="1508.37" gradientUnits="userSpaceOnUse">
<stop stop-color="#54D3D8"/>
<stop offset="1" stop-color="#2C6F72"/>
</linearGradient>
<clipPath id="clip0_44_586">
<rect width="1650" height="1051" fill="white"/>
</clipPath>
</defs>
</svg>
