<svg xmlns="http://www.w3.org/2000/svg" fill="none" viewBox="0 0 1920 1080" height="1080" width="1920"><g clip-path="url(#a)"><path fill="#000" d="M0 0h1920v1080H0z"/><path fill="url(#b)" opacity=".35" d="M-80-24h2080v1128H-80z"/><ellipse fill="url(#c)" transform="rotate(32.393 33.77 283.628)" ry="920.672" rx="1316.38" cy="283.628" cx="33.771" opacity=".33"/><path fill="url(#d)" opacity=".1" d="M-31-24h1982v1147H-31z"/><path fill="url(#e)" opacity=".26" d="M-31-515h1982v1845H-31z"/><g filter="url(#f)"><path fill="#000" d="m1549.12 782.72 607.27 140.571-55.67 47.199-677.6-183.215zm-839.076 9.842 707.846-20.296 43.86 3.146-767.597 26.907zm1350.626 2.784-482.41-14.943 67.19-3.554 482.84 13.094zm-519.5-13.852-788.901 25.148-43.859-3.145 757.18-26.936z" opacity=".42"/><path fill="#EA4949" d="m1549.12 782.72 607.27 140.571-55.67 47.199-677.6-183.215zm-839.076 9.842 707.846-20.296 43.86 3.146-767.597 26.907zm1350.626 2.784-482.41-14.943 67.19-3.554 482.84 13.094zm-519.5-13.852-788.901 25.148-43.859-3.145 757.18-26.936z" opacity=".42"/><path fill="url(#g)" d="m1549.12 782.72 607.27 140.571-55.67 47.199-677.6-183.215z" opacity=".42"/><path fill="url(#h)" d="m710.044 792.562 707.846-20.296 43.86 3.146-767.597 26.907z" opacity=".42"/><path fill="url(#i)" d="m2060.67 795.346-482.41-14.943 67.19-3.554 482.84 13.094z" opacity=".42"/><path fill="url(#j)" d="m1541.17 781.494-788.901 25.148-43.859-3.145 757.18-26.936z" opacity=".42"/></g><g filter="url(#k)" opacity=".64"><path fill="#54D3D8" d="m1097.93 827.34-400.77-10.429 55.743-4.882L1154 820.373z"/></g><g filter="url(#l)" fill="#54D3D8"><path d="m-79.198 842.045 634.829-32.163 39.397 2.958-688.344 40.384zm745.574-23.41-707.484 38.688-39.398-2.957 679-40.279z" opacity=".42"/></g><g filter="url(#m)"><path fill="url(#n)" d="m-93.36 714.213 555.081 59.53 32.025.563-604.571-68.031z"/></g><g filter="url(#o)"><path fill="url(#p)" d="m-156.968 693.379 757.331 83.045 42.748 1.767-825.902-93.813z"/></g><g filter="url(#q)" opacity=".58"><path fill="url(#r)" d="M2281.85 739.762 651.697 778.055l221.708-17.363 1508.985-37.125z"/></g><g filter="url(#s)" opacity=".35"><path fill="url(#t)" d="M2586.26 695.078 938.504 746.599l220.946-18.932 1524.84-49.34z"/></g><g filter="url(#u)" opacity=".58"><path fill="url(#v)" d="m1476.1 921.806-312.69-99.804 43.57 10.025 289.6 91.895z"/></g><g filter="url(#w)" opacity=".35"><path fill="url(#x)" d="m1537.73 929.483-317.18-97.139 43.57 9.513 293.65 89.409z"/></g><g filter="url(#y)"><path fill="url(#z)" d="M551.102 958.614-500.105 1129.86l96.373 57.5L769.221 964.163z" opacity=".42"/><path fill="url(#A)" d="M2003.57 970.603 778.265 945.878l-75.919 3.832 1328.734 32.78z" opacity=".42"/><path fill="url(#B)" d="m-334.412 973.995 835.069-18.205-116.307-4.329-835.803 15.951z" opacity=".42"/><path fill="url(#C)" d="m564.869 957.12 1365.611 30.636 75.92-3.832L695.693 951.11z" opacity=".42"/></g></g><defs><linearGradient gradientUnits="userSpaceOnUse" y2="1104" x2="960" y1="-24" x1="960" id="b"><stop stop-color="#54D3D8"/><stop offset="1"/></linearGradient><linearGradient gradientUnits="userSpaceOnUse" y2="1051.31" x2="960" y1="-24" x1="960" id="d"><stop/><stop stop-color="#54D3D8" offset="1"/></linearGradient><linearGradient gradientUnits="userSpaceOnUse" y2="1214.69" x2="960" y1="-515" x1="960" id="e"><stop stop-color="#54D3D8"/><stop offset=".573"/></linearGradient><linearGradient gradientUnits="userSpaceOnUse" y2="905.754" x2="1817.05" y1="958.449" x1="2168.21" id="g"><stop stop-color="#EA4949"/><stop stop-color="#842929" offset="1"/></linearGradient><linearGradient gradientUnits="userSpaceOnUse" y2="946.893" x2="1230.37" y1="767.137" x1="1459.37" id="h"><stop stop-color="#EA4949"/><stop stop-color="#842929" offset="1"/></linearGradient><linearGradient gradientUnits="userSpaceOnUse" y2="687.487" x2="1786.92" y1="786.107" x1="1578.12" id="i"><stop stop-color="#EA4949"/><stop stop-color="#842929" offset="1"/></linearGradient><linearGradient gradientUnits="userSpaceOnUse" y2="618.824" x2="955.838" y1="812.5" x1="711.105" id="j"><stop stop-color="#EA4949"/><stop stop-color="#842929" offset="1"/></linearGradient><linearGradient gradientUnits="userSpaceOnUse" y2="522.825" x2="6.972" y1="817.56" x1="465.972" id="n"><stop stop-color="#266062"/><stop stop-color="#4EC3C8" offset="1"/></linearGradient><linearGradient gradientUnits="userSpaceOnUse" y2="469.465" x2="-73.361" y1="822.732" x1="620.431" id="p"><stop stop-color="#2C6F72" offset=".192"/><stop stop-color="#54D3D8" offset="1"/></linearGradient><linearGradient gradientUnits="userSpaceOnUse" y2="1369.54" x2="916.558" y1="728.328" x1="2348.46" id="r"><stop stop-color="#54D3D8"/><stop stop-color="#2C6F72" offset=".76"/></linearGradient><linearGradient gradientUnits="userSpaceOnUse" y2="1360.15" x2="1383.68" y1="696.069" x1="2311.77" id="t"><stop stop-color="#54D3D8"/><stop stop-color="#2C6F72" offset=".788"/></linearGradient><linearGradient gradientUnits="userSpaceOnUse" y2="921.843" x2="1163.05" y1="923.002" x1="1489.73" id="v"><stop stop-color="#54D3D8"/><stop stop-color="#2C6F72" offset=".76"/></linearGradient><linearGradient gradientUnits="userSpaceOnUse" y2="947.112" x2="1238.39" y1="911.084" x1="1485.54" id="x"><stop stop-color="#54D3D8"/><stop stop-color="#2C6F72" offset=".788"/></linearGradient><linearGradient gradientUnits="userSpaceOnUse" y2="852.343" x2="-445.372" y1="1087.1" x1="744.975" id="z"><stop stop-color="#54D3D8"/><stop stop-color="#2C6F72" offset="1"/></linearGradient><linearGradient gradientUnits="userSpaceOnUse" y2="462.694" x2="1551.45" y1="1060.82" x1="1894.52" id="A"><stop stop-color="#54D3D8"/><stop stop-color="#2C6F72" offset="1"/></linearGradient><linearGradient gradientUnits="userSpaceOnUse" y2="1362.65" x2="-17.426" y1="907.356" x1="-374.98" id="B"><stop stop-color="#54D3D8"/><stop stop-color="#2C6F72" offset="1"/></linearGradient><linearGradient gradientUnits="userSpaceOnUse" y2="1508.37" x2="1092.04" y1="866.06" x1="723.631" id="C"><stop stop-color="#54D3D8"/><stop stop-color="#2C6F72" offset="1"/></linearGradient><filter color-interpolation-filters="sRGB" filterUnits="userSpaceOnUse" height="206.224" width="1470.24" y="768.266" x="690.153" id="f"><feFlood result="BackgroundImageFix" flood-opacity="0"/><feBlend result="shape" in2="BackgroundImageFix" in="SourceGraphic"/><feGaussianBlur result="effect1_foregroundBlur_23_1703" stdDeviation="2"/></filter><filter color-interpolation-filters="sRGB" filterUnits="userSpaceOnUse" height="18.311" width="459.841" y="810.529" x="695.659" id="k"><feFlood result="BackgroundImageFix" flood-opacity="0"/><feBlend result="shape" in2="BackgroundImageFix" in="SourceGraphic"/><feGaussianBlur result="effect1_foregroundBlur_23_1703" stdDeviation=".75"/></filter><filter color-interpolation-filters="sRGB" filterUnits="userSpaceOnUse" height="53.841" width="766.092" y="806.682" x="-96.516" id="l"><feFlood result="BackgroundImageFix" flood-opacity="0"/><feBlend result="shape" in2="BackgroundImageFix" in="SourceGraphic"/><feGaussianBlur result="effect1_foregroundBlur_23_1703" stdDeviation="1.6"/></filter><filter color-interpolation-filters="sRGB" filterUnits="userSpaceOnUse" height="70.031" width="606.571" y="705.275" x="-111.825" id="m"><feFlood result="BackgroundImageFix" flood-opacity="0"/><feBlend result="shape" in2="BackgroundImageFix" in="SourceGraphic"/><feGaussianBlur result="effect1_foregroundBlur_23_1703" stdDeviation=".5"/></filter><filter color-interpolation-filters="sRGB" filterUnits="userSpaceOnUse" height="96.613" width="828.701" y="682.978" x="-184.191" id="o"><feFlood result="BackgroundImageFix" flood-opacity="0"/><feBlend result="shape" in2="BackgroundImageFix" in="SourceGraphic"/><feGaussianBlur result="effect1_foregroundBlur_23_1703" stdDeviation=".7"/></filter><filter color-interpolation-filters="sRGB" filterUnits="userSpaceOnUse" height="57.088" width="1733.29" y="722.267" x="650.397" id="q"><feFlood result="BackgroundImageFix" flood-opacity="0"/><feBlend result="shape" in2="BackgroundImageFix" in="SourceGraphic"/><feGaussianBlur result="effect1_foregroundBlur_23_1703" stdDeviation=".65"/></filter><filter color-interpolation-filters="sRGB" filterUnits="userSpaceOnUse" height="70.072" width="1747.59" y="677.427" x="937.604" id="s"><feFlood result="BackgroundImageFix" flood-opacity="0"/><feBlend result="shape" in2="BackgroundImageFix" in="SourceGraphic"/><feGaussianBlur result="effect1_foregroundBlur_23_1703" stdDeviation=".45"/></filter><filter color-interpolation-filters="sRGB" filterUnits="userSpaceOnUse" height="104.52" width="335.772" y="820.702" x="1162.11" id="u"><feFlood result="BackgroundImageFix" flood-opacity="0"/><feBlend result="shape" in2="BackgroundImageFix" in="SourceGraphic"/><feGaussianBlur result="effect1_foregroundBlur_23_1703" stdDeviation=".65"/></filter><filter color-interpolation-filters="sRGB" filterUnits="userSpaceOnUse" height="100.722" width="339.024" y="831.444" x="1219.65" id="w"><feFlood result="BackgroundImageFix" flood-opacity="0"/><feBlend result="shape" in2="BackgroundImageFix" in="SourceGraphic"/><feGaussianBlur result="effect1_foregroundBlur_23_1703" stdDeviation=".45"/></filter><filter color-interpolation-filters="sRGB" filterUnits="userSpaceOnUse" height="249.484" width="2539.18" y="941.878" x="-504.104" id="y"><feFlood result="BackgroundImageFix" flood-opacity="0"/><feBlend result="shape" in2="BackgroundImageFix" in="SourceGraphic"/><feGaussianBlur result="effect1_foregroundBlur_23_1703" stdDeviation="2"/></filter><radialGradient gradientTransform="matrix(0 920.672 -1316.38 0 33.77 283.628)" gradientUnits="userSpaceOnUse" r="1" cy="0" cx="0" id="c"><stop stop-color="#4EC3C8"/><stop stop-opacity="0" stop-color="#4EC3C8" offset="1"/></radialGradient><clipPath id="a"><path fill="#fff" d="M0 0h1920v1080H0z"/></clipPath></defs></svg>